<?xml version="1.0" encoding="UTF-8"?>
<svg version="1.1" xmlns="http://www.w3.org/2000/svg" width="23" height="23">
<path d="M0 0 C7.59 0 15.18 0 23 0 C23 7.59 23 15.18 23 23 C15.41 23 7.82 23 0 23 C0 15.41 0 7.82 0 0 Z " fill="#FFA070" transform="translate(0,0)"/>
<path d="M0 0 C4.888125 -0.061875 4.888125 -0.061875 9.875 -0.125 C10.90093262 -0.14320801 11.92686523 -0.16141602 12.98388672 -0.18017578 C13.79100098 -0.1851709 14.59811523 -0.19016602 15.4296875 -0.1953125 C16.25710449 -0.20578613 17.08452148 -0.21625977 17.93701172 -0.22705078 C20 0 20 0 22 2 C21.09507813 2.09087891 21.09507813 2.09087891 20.171875 2.18359375 C18.97304688 2.30927734 18.97304688 2.30927734 17.75 2.4375 C16.96109375 2.51871094 16.1721875 2.59992188 15.359375 2.68359375 C12.70381637 2.99511197 12.70381637 2.99511197 9 4 C9.99 6.97 10.98 9.94 12 13 C11.34 13.66 10.68 14.32 10 15 C10.3269756 17.61580479 10.82039068 19.64078137 12 22 C12.66 22.33 13.32 22.66 14 23 C9.38 23 4.76 23 0 23 C0 15.41 0 7.82 0 0 Z " fill="#FF7321" transform="translate(0,0)"/>
<path d="M0 0 C1.21816406 0.03480469 1.21816406 0.03480469 2.4609375 0.0703125 C3.68683594 0.09738281 3.68683594 0.09738281 4.9375 0.125 C5.87722656 0.15980469 5.87722656 0.15980469 6.8359375 0.1953125 C6.5059375 1.1853125 6.1759375 2.1753125 5.8359375 3.1953125 C4.8459375 3.1953125 3.8559375 3.1953125 2.8359375 3.1953125 C5.5025794 4.52863345 7.00274053 3.86633283 9.8359375 3.1953125 C9.8359375 5.86197917 9.8359375 8.52864583 9.8359375 11.1953125 C8.8459375 10.8653125 7.8559375 10.5353125 6.8359375 10.1953125 C6.8359375 9.2053125 6.8359375 8.2153125 6.8359375 7.1953125 C6.7121875 7.8346875 6.5884375 8.4740625 6.4609375 9.1328125 C6.2546875 9.8134375 6.0484375 10.4940625 5.8359375 11.1953125 C4.8459375 11.6903125 4.8459375 11.6903125 3.8359375 12.1953125 C3.8359375 12.8553125 3.8359375 13.5153125 3.8359375 14.1953125 C4.8259375 14.5253125 5.8159375 14.8553125 6.8359375 15.1953125 C6.8359375 15.8553125 6.8359375 16.5153125 6.8359375 17.1953125 C5.1859375 17.1953125 3.5359375 17.1953125 1.8359375 17.1953125 C1.8359375 16.5353125 1.8359375 15.8753125 1.8359375 15.1953125 C0.1859375 14.8653125 -1.4640625 14.5353125 -3.1640625 14.1953125 C-2.5040625 13.2053125 -1.8440625 12.2153125 -1.1640625 11.1953125 C-1.4762389 8.54898963 -1.4762389 8.54898963 -2.1640625 6.1953125 C-3.1540625 6.6903125 -3.1540625 6.6903125 -4.1640625 7.1953125 C-4.2890625 4.8203125 -4.2890625 4.8203125 -4.1640625 2.1953125 C-2.1640625 0.1953125 -2.1640625 0.1953125 0 0 Z " fill="#FFBD9D" transform="translate(12.1640625,1.8046875)"/>
<path d="M0 0 C0.66 0.33 1.32 0.66 2 1 C1.67 1.99 1.34 2.98 1 4 C1.66096786 6.65245602 1.66096786 6.65245602 3 9 C3.99 9.33 4.98 9.66 6 10 C6 10.66 6 11.32 6 12 C4.35 12 2.7 12 1 12 C1 11.34 1 10.68 1 10 C-0.65 9.67 -2.3 9.34 -4 9 C-3.34 8.01 -2.68 7.02 -2 6 C-1.83286431 3.37468476 -1.83286431 3.37468476 -2 1 C-1.34 0.67 -0.68 0.34 0 0 Z " fill="#FFEAE0" transform="translate(13,7)"/>
<path d="M0 0 C0.66 0.33 1.32 0.66 2 1 C2 3.64 2 6.28 2 9 C0.58376784 9.05447047 -0.83308191 9.09300508 -2.25 9.125 C-3.03890625 9.14820313 -3.8278125 9.17140625 -4.640625 9.1953125 C-7.24710389 8.97954438 -8.80767583 8.40935125 -11 7 C-11.75 4.875 -11.75 4.875 -12 3 C-8.73045798 3.56371414 -7.17424117 4.49962266 -5 7 C-4.38125 6.690625 -3.7625 6.38125 -3.125 6.0625 C-1.75 5.375 -0.375 4.6875 1 4 C0.67 2.68 0.34 1.36 0 0 Z " fill="#FFA574" transform="translate(21,14)"/>
<path d="M0 0 C0.99 0 1.98 0 3 0 C3 4.95 3 9.9 3 15 C2.34 14.34 1.68 13.68 1 13 C1 11.33333333 1 9.66666667 1 8 C0.34 7.34 -0.32 6.68 -1 6 C-1.99 6.33 -2.98 6.66 -4 7 C-4.66 6.34 -5.32 5.68 -6 5 C-5.38125 4.9175 -4.7625 4.835 -4.125 4.75 C-1.81562433 4.18741541 -1.81562433 4.18741541 -0.75 1.9375 C-0.5025 1.298125 -0.255 0.65875 0 0 Z " fill="#FF8C57" transform="translate(20,0)"/>
<path d="M0 0 C0.99 0.33 1.98 0.66 3 1 C3 3.33333333 3 5.66666667 3 8 C2.01 7.67 1.02 7.34 0 7 C0 6.01 0 5.02 0 4 C-0.33 5.32 -0.66 6.64 -1 8 C-1.99 7.67 -2.98 7.34 -4 7 C-3.6875 4.625 -3.6875 4.625 -3 2 C-2.01 1.34 -1.02 0.68 0 0 Z " fill="#FFF1EC" transform="translate(19,5)"/>
<path d="M0 0 C2.12508244 3.18762365 2.5020163 5.26512223 3 9 C2.01 9.495 2.01 9.495 1 10 C1.2784375 10.928125 1.2784375 10.928125 1.5625 11.875 C2 14 2 14 1 16 C0.34 15.67 -0.32 15.34 -1 15 C-1.02715383 13.25008666 -1.04646551 11.50005055 -1.0625 9.75 C-1.07410156 8.77546875 -1.08570313 7.8009375 -1.09765625 6.796875 C-1.01195577 4.34241322 -0.70706066 2.33831086 0 0 Z " fill="#FF5707" transform="translate(9,5)"/>
<path d="M0 0 C0.66 0 1.32 0 2 0 C2 0.66 2 1.32 2 2 C3.65 2 5.3 2 7 2 C7 1.34 7 0.68 7 0 C7.99 0.33 8.98 0.66 10 1 C7.82575883 3.50037734 6.26954202 4.43628586 3 5 C2.01 3.35 1.02 1.7 0 0 Z " fill="#FF6110" transform="translate(12,17)"/>
<path d="M0 0 C2.97 0.99 5.94 1.98 9 3 C9 3.66 9 4.32 9 5 C7.35 5 5.7 5 4 5 C4 4.34 4 3.68 4 3 C2.35 2.67 0.7 2.34 -1 2 C-0.67 1.34 -0.34 0.68 0 0 Z " fill="#FFD8C4" transform="translate(10,14)"/>
<path d="M0 0 C0.66 0.66 1.32 1.32 2 2 C0.54364629 2.22174933 -0.91522956 2.42698698 -2.375 2.625 C-3.18710937 2.74101563 -3.99921875 2.85703125 -4.8359375 2.9765625 C-5.55007813 2.98429688 -6.26421875 2.99203125 -7 3 C-7.66 2.34 -8.32 1.68 -9 1 C-5.98675805 -0.50662097 -3.31713623 -0.17770373 0 0 Z " fill="#FF5F07" transform="translate(20,0)"/>
</svg>
