<?xml version="1.0" encoding="UTF-8"?>
<svg version="1.1" xmlns="http://www.w3.org/2000/svg" width="91" height="91">
<path d="M0 0 C30.03 0 60.06 0 91 0 C91 30.03 91 60.06 91 91 C60.97 91 30.94 91 0 91 C0 60.97 0 30.94 0 0 Z " fill="#FF6203" transform="translate(0,0)"/>
<path d="M0 0 C3.63149955 2.80509745 4.80063598 4.55582342 5.43276978 9.13494873 C5.58035823 13.18052238 5.5625384 17.19596753 5.48828125 21.2421875 C5.47894672 22.73575656 5.47183363 24.22934102 5.46684265 25.72293091 C5.44782267 29.63927049 5.39876712 33.55467141 5.34332275 37.47064209 C5.29202096 41.47248641 5.26930544 45.47448357 5.24414062 49.4765625 C5.19064167 57.31813736 5.10539172 65.15895166 5 73 C0.33692986 73.04937279 -4.32598873 73.08570627 -8.98925781 73.10986328 C-10.57619883 73.11993188 -12.16312125 73.13358767 -13.75 73.15087891 C-16.02869247 73.17509001 -18.30714006 73.18647422 -20.5859375 73.1953125 C-21.29744965 73.20563507 -22.00896179 73.21595764 -22.74203491 73.22659302 C-24.49631665 73.22699422 -26.24996709 73.12202209 -28 73 C-29.95216435 71.04783565 -30.84826645 69.46800047 -32 67 C-32.66 67 -33.32 67 -34 67 C-34.33 67.66 -34.66 68.32 -35 69 C-35.66 67.68 -36.32 66.36 -37 65 C-40.05270463 64.84188612 -40.05270463 64.84188612 -43 66 C-46.0109362 63.9927092 -46.63016497 63.16115776 -48 60 C-48.928125 60.825 -49.85625 61.65 -50.8125 62.5 C-53.625 65 -53.625 65 -57 65 C-59.88375564 55.13356561 -61.18981481 46.2921806 -61 36 C-59.515 35.505 -59.515 35.505 -58 35 C-58.02320313 33.72382812 -58.04640625 32.44765625 -58.0703125 31.1328125 C-58.08906829 29.4635475 -58.10726869 27.7942762 -58.125 26.125 C-58.15013672 24.86236328 -58.15013672 24.86236328 -58.17578125 23.57421875 C-58.18222656 22.76855469 -58.18867187 21.96289062 -58.1953125 21.1328125 C-58.20578613 20.38918457 -58.21625977 19.64555664 -58.22705078 18.87939453 C-58 17 -58 17 -56 15 C-55.53837573 12.56747339 -55.53837573 12.56747339 -55.375 9.875 C-55.26285156 8.50988281 -55.26285156 8.50988281 -55.1484375 7.1171875 C-55.09945312 6.41851562 -55.05046875 5.71984375 -55 5 C-51.846632 4.29925156 -49.27275026 4 -46 4 C-45.401875 3.505 -44.80375 3.01 -44.1875 2.5 C-40.98935074 0.30698337 -38.79394516 0.53407691 -35 1 C-32.24670979 2.79562405 -30.47372539 4.05254922 -29 7 C-22.95138867 8.35592652 -17.05780276 8.00963379 -11 7 C-10.896875 6.401875 -10.79375 5.80375 -10.6875 5.1875 C-8.93286823 -0.39541927 -5.52373759 -0.8571317 0 0 Z " fill="#FF6109" transform="translate(86,18)"/>
<path d="M0 0 C3.25198998 2.69845977 4.77164122 4.19947888 5.3046875 8.40234375 C5.31171118 10.62533812 5.22111259 12.78887412 5 15 C4.03320312 15.35191406 4.03320312 15.35191406 3.046875 15.7109375 C0.7922092 16.81161073 0.7922092 16.81161073 0.390625 19.1640625 C0.34421875 19.97617187 0.2978125 20.78828125 0.25 21.625 C0.16492188 22.85089844 0.16492188 22.85089844 0.078125 24.1015625 C0.03945312 25.04128906 0.03945312 25.04128906 0 26 C0.66 26 1.32 26 2 26 C1.29211272 29.68101385 -0.1602395 32.74503911 -2 36 C-2.99 36.66 -3.98 37.32 -5 38 C-5.33 37.34 -5.66 36.68 -6 36 C-5.505 35.01 -5.505 35.01 -5 34 C-5.78375 33.731875 -6.5675 33.46375 -7.375 33.1875 C-10 32 -10 32 -12 29 C-12 27.68 -12 26.36 -12 25 C-11.236875 24.896875 -10.47375 24.79375 -9.6875 24.6875 C-6.6418771 24.15167949 -6.6418771 24.15167949 -4 21 C-7.63 20.67 -11.26 20.34 -15 20 C-14.8453125 22.6296875 -14.8453125 22.6296875 -14.6875 25.3125 C-14.62949219 26.29863281 -14.57148437 27.28476562 -14.51171875 28.30078125 C-13.95377187 31.24384457 -13.31459868 32.18182999 -11 34 C-11.66 35.32 -12.32 36.64 -13 38 C-13.33 37.01 -13.66 36.02 -14 35 C-17.96 34.67 -21.92 34.34 -26 34 C-26 35.32 -26 36.64 -26 38 C-25.01 38 -24.02 38 -23 38 C-21 41 -21 41 -21.375 43.6875 C-21.684375 44.8321875 -21.684375 44.8321875 -22 46 C-23.57914015 46.53341184 -25.16354387 47.05125763 -26.75 47.5625 C-27.63171875 47.85253906 -28.5134375 48.14257812 -29.421875 48.44140625 C-32 49 -32 49 -34.01171875 48.4375 C-36.96498954 47.78766438 -38.47130363 48.99534094 -41.0625 50.4375 C-45.70572207 53 -45.70572207 53 -49 53 C-47.78604047 49.35812142 -46.90993923 49.08254007 -43.625 47.3125 C-42.83351563 46.87550781 -42.04203125 46.43851563 -41.2265625 45.98828125 C-39 45 -39 45 -36 45 C-36 44.01 -36 43.02 -36 42 C-41.11365014 43.0681847 -46.07227969 44.23107476 -51 46 C-50.9375 44.1875 -50.9375 44.1875 -50 42 C-45.14886197 39.2833627 -41.63000273 38.65530596 -36 39 C-36.44472656 38.46890625 -36.88945313 37.9378125 -37.34765625 37.390625 C-38.19650391 36.33101562 -38.19650391 36.33101562 -39.0625 35.25 C-39.63097656 34.55390625 -40.19945312 33.8578125 -40.78515625 33.140625 C-42 31 -42 31 -41.6875 29.09375 C-41.460625 28.4028125 -41.23375 27.711875 -41 27 C-40.93311409 25.08438746 -40.91468281 23.16664408 -40.9375 21.25 C-40.95103516 19.77273437 -40.95103516 19.77273437 -40.96484375 18.265625 C-40.97644531 17.51796875 -40.98804688 16.7703125 -41 16 C-41.928125 15.8453125 -41.928125 15.8453125 -42.875 15.6875 C-45 15 -45 15 -47 12 C-47.61420709 7.96378195 -47.34355123 6.47888959 -44.9375 3.125 C-42 1 -42 1 -38.5 0.4375 C-34.49461748 1.08122219 -32.84054174 2.15945826 -30 5 C-29.67 5.66 -29.34 6.32 -29 7 C-22.95138867 8.35592652 -17.05780276 8.00963379 -11 7 C-10.896875 6.401875 -10.79375 5.80375 -10.6875 5.1875 C-8.93286823 -0.39541927 -5.52373759 -0.8571317 0 0 Z " fill="#FFF4EF" transform="translate(86,18)"/>
<path d="M0 0 C0 12.21 0 24.42 0 37 C-4.455 35.02 -4.455 35.02 -9 33 C-11.00109278 33.32670903 -13.00116131 33.65977214 -15 34 C-17.82694795 32.93410159 -20.40272702 31.53595077 -23 30 C-22.125 25.25 -22.125 25.25 -21 23 C-19.68 23 -18.36 23 -17 23 C-17 21.02 -17 19.04 -17 17 C-17.99 16.67 -18.98 16.34 -20 16 C-20 12.37 -20 8.74 -20 5 C-16.04 5 -12.08 5 -8 5 C-8.33 5.66 -8.66 6.32 -9 7 C-9.66 7 -10.32 7 -11 7 C-11.33 7.99 -11.66 8.98 -12 10 C-13.65 10 -15.3 10 -17 10 C-16.37967524 13.46485707 -16.37967524 13.46485707 -15 17 C-12.50965614 18.29660434 -12.50965614 18.29660434 -10 19 C-9.67 19.99 -9.34 20.98 -9 22 C-6.74306568 19.74306568 -6.12707993 17.95858483 -5 15 C-4.34786461 13.65949948 -3.68620031 12.32338632 -3 11 C-3.66 11 -4.32 11 -5 11 C-4.91291331 9.54054712 -4.80473093 8.08234132 -4.6875 6.625 C-4.62949219 5.81289063 -4.57148437 5.00078125 -4.51171875 4.1640625 C-3.93288652 1.71617658 -2.91559758 0 0 0 Z " fill="#FFEDE5" transform="translate(91,33)"/>
<path d="M0 0 C4.62 0 9.24 0 14 0 C14 4.95 14 9.9 14 15 C8.76512064 16.04697587 8.46642575 15.7865703 4 14 C1.18832197 14.20083415 -0.38133019 14.32240925 -2.3125 16.4375 C-5.1060302 19.02410203 -8.30529223 19.28489527 -12 20 C-13 19 -13 19 -13.0625 16.4375 C-13.041875 15.633125 -13.02125 14.82875 -13 14 C-14.32 14 -15.64 14 -17 14 C-17.33 15.32 -17.66 16.64 -18 18 C-22.75481646 17.42365861 -25.97048212 15.44931479 -30 13 C-31.2964351 13.76278623 -32.58699148 14.53556959 -33.875 15.3125 C-34.59429687 15.74175781 -35.31359375 16.17101562 -36.0546875 16.61328125 C-38.26846333 18.01752375 -38.26846333 18.01752375 -40 21 C-41.32 20.67 -42.64 20.34 -44 20 C-42.35825073 14.77625233 -39.72832813 11.49000946 -34.8828125 8.84375 C-32.50086927 7.84926865 -30.57800934 7.18543576 -28 7 C-25.31787844 8.30821847 -24.04865849 9.74122269 -22 12 C-21.34 11.01 -20.68 10.02 -20 9 C-17.66832622 8.91201231 -15.33199388 8.92094936 -13 9 C-11.32442621 8.71479595 -9.65182755 8.40044304 -8 8 C-8.33 9.98 -8.66 11.96 -9 14 C-6.49962266 11.82575883 -5.56371414 10.26954202 -5 7 C-4.01 7 -3.02 7 -2 7 C-2 8.32 -2 9.64 -2 11 C-1.278125 10.484375 -0.55625 9.96875 0.1875 9.4375 C3 8 3 8 5.5625 8.1875 C7.8495712 8.94985707 9.89451994 9.83028886 12 11 C8.97495712 5.45408806 5.79145929 3.3896798 0 1 C0 0.67 0 0.34 0 0 Z " fill="#FFF6F2" transform="translate(77,0)"/>
<path d="M0 0 C2 2 2 2 3 5 C4.90708843 5.91428339 4.90708843 5.91428339 7 6 C7.66 5.34 8.32 4.68 9 4 C9.763125 4.680625 10.52625 5.36125 11.3125 6.0625 C12.6428125 7.0215625 12.6428125 7.0215625 14 8 C14.99 7.67 15.98 7.34 17 7 C17.99 9.31 18.98 11.62 20 14 C11.09 14 2.18 14 -7 14 C-7.66 12.02 -8.32 10.04 -9 8 C-7.68 8 -6.36 8 -5 8 C-4.9175 7.4225 -4.835 6.845 -4.75 6.25 C-3.79468987 3.3840696 -2.21530827 2.0009236 0 0 Z " fill="#FF6207" transform="translate(38,77)"/>
<path d="M0 0 C1.22847656 -0.00515625 2.45695312 -0.0103125 3.72265625 -0.015625 C6.9375 0.25 6.9375 0.25 9.9375 2.25 C9.6075 4.23 9.2775 6.21 8.9375 8.25 C7.9475 8.25 6.9575 8.25 5.9375 8.25 C5.6075 7.92 5.2775 7.59 4.9375 7.25 C4.6075 8.24 4.2775 9.23 3.9375 10.25 C0.9675 9.755 0.9675 9.755 -2.0625 9.25 C-2.0625 9.91 -2.0625 10.57 -2.0625 11.25 C-3.3825 10.92 -4.7025 10.59 -6.0625 10.25 C-6.3925 8.93 -6.7225 7.61 -7.0625 6.25 C-8.0525 6.58 -9.0425 6.91 -10.0625 7.25 C-10.3925 5.6 -10.7225 3.95 -11.0625 2.25 C-7.41135841 -0.05598416 -4.2544743 -0.01789474 0 0 Z " fill="#FFF8F5" transform="translate(66.0625,66.75)"/>
<path d="M0 0 C0.33 0 0.66 0 1 0 C1 4.95 1 9.9 1 15 C-1.97922593 15.02683987 -4.95821295 15.04676037 -7.9375 15.0625 C-9.21270508 15.07506836 -9.21270508 15.07506836 -10.51367188 15.08789062 C-11.32255859 15.09111328 -12.13144531 15.09433594 -12.96484375 15.09765625 C-13.7137085 15.10289307 -14.46257324 15.10812988 -15.23413086 15.11352539 C-17 15 -17 15 -18 14 C-18.04092937 11.66702567 -18.04241723 9.33294775 -18 7 C-16.68 6.67 -15.36 6.34 -14 6 C-14 8.64 -14 11.28 -14 14 C-12.68 13.34 -11.36 12.68 -10 12 C-10.33 9.69 -10.66 7.38 -11 5 C-9.125 5.25 -9.125 5.25 -7 6 C-5.75 8.0625 -5.75 8.0625 -5 10 C-3.90341064 6.71023192 -4.20046862 5.28696233 -5 2 C-3.35 2.33 -1.7 2.66 0 3 C0 2.01 0 1.02 0 0 Z " fill="#FFF2ED" transform="translate(90,76)"/>
<path d="M0 0 C0 8.91 0 17.82 0 27 C-3.3 26.34 -6.6 25.68 -10 25 C-7.66666667 20.33333333 -5.33333333 15.66666667 -3 11 C-3.66 11 -4.32 11 -5 11 C-4.91291331 9.54054712 -4.80473093 8.08234132 -4.6875 6.625 C-4.62949219 5.81289063 -4.57148437 5.00078125 -4.51171875 4.1640625 C-3.93288652 1.71617658 -2.91559758 0 0 0 Z " fill="#FF6A1A" transform="translate(91,33)"/>
<path d="M0 0 C3.96 0 7.92 0 12 0 C11.67 0.66 11.34 1.32 11 2 C10.34 2 9.68 2 9 2 C8.67 2.99 8.34 3.98 8 5 C6.35 5 4.7 5 3 5 C3.62032476 8.46485707 3.62032476 8.46485707 5 12 C7.49641128 13.51792644 7.49641128 13.51792644 10 14 C9.67 14.99 9.34 15.98 9 17 C6.5625 16.1875 6.5625 16.1875 4 15 C3.67 14.01 3.34 13.02 3 12 C2.01 11.67 1.02 11.34 0 11 C0 7.37 0 3.74 0 0 Z " fill="#FF7435" transform="translate(71,38)"/>
<path d="M0 0 C3.63 0 7.26 0 11 0 C11 3.96 11 7.92 11 12 C10.01 12.33 9.02 12.66 8 13 C7.67 13.99 7.34 14.98 7 16 C4.9375 16.6875 4.9375 16.6875 3 17 C3.25 15.125 3.25 15.125 4 13 C6.0625 11.75 6.0625 11.75 8 11 C8 9.02 8 7.04 8 5 C7.236875 4.9175 6.47375 4.835 5.6875 4.75 C3 4 3 4 0 0 Z " fill="#FF5F0E" transform="translate(49,38)"/>
<path d="M0 0 C0.99 0 1.98 0 3 0 C3.83482345 4.39586725 4.41887949 8.5301847 4 13 C1.7648089 15.86654348 -0.74386676 17.43962105 -4 19 C-4.125 16.125 -4.125 16.125 -4 13 C-3.34 12.34 -2.68 11.68 -2 11 C-1.57557555 8.60006644 -1.57557555 8.60006644 -1.4375 5.9375 C-1.09722222 1.09722222 -1.09722222 1.09722222 0 0 Z " fill="#FFF5F0" transform="translate(32,22)"/>
<path d="M0 0 C3.96 0 7.92 0 12 0 C12.33 1.32 12.66 2.64 13 4 C12.01 4 11.02 4 10 4 C9.67 4.99 9.34 5.98 9 7 C8.34 7 7.68 7 7 7 C6.67 7.99 6.34 8.98 6 10 C3 6.25 3 6.25 3 4 C2.01 4 1.02 4 0 4 C0 2.68 0 1.36 0 0 Z " fill="#FF6009" transform="translate(60,52)"/>
<path d="M0 0 C2 2 2 2 3.25 4.875 C5.32063296 8.57255885 7.37723937 9.88672296 11 12 C11.99 12.66 12.98 13.32 14 14 C9.38 14 4.76 14 0 14 C0 9.38 0 4.76 0 0 Z " fill="#FFF8F6" transform="translate(0,77)"/>
<path d="M0 0 C4.62 0 9.24 0 14 0 C11 2 11 2 8.0625 3.625 C4.24760045 6.58349353 2.80945617 9.61472975 1 14 C0.67 14 0.34 14 0 14 C0 9.38 0 4.76 0 0 Z " fill="#FFFAF9" transform="translate(0,0)"/>
<path d="M0 0 C0.185625 0.598125 0.37125 1.19625 0.5625 1.8125 C2.72273753 5.09981799 5.35107655 5.64854687 9 7 C8.67 7.66 8.34 8.32 8 9 C1.73 9 -4.54 9 -11 9 C-11 8.34 -11 7.68 -11 7 C-10.16855469 6.72736328 -10.16855469 6.72736328 -9.3203125 6.44921875 C-8.59585938 6.19785156 -7.87140625 5.94648437 -7.125 5.6875 C-6.40570313 5.44386719 -5.68640625 5.20023437 -4.9453125 4.94921875 C-2.66005095 4.03664453 -2.66005095 4.03664453 -1 1 C-0.67 0.67 -0.34 0.34 0 0 Z " fill="#FF661A" transform="translate(67,59)"/>
<path d="M0 0 C0.94875 0.04125 1.8975 0.0825 2.875 0.125 C3.535 1.445 4.195 2.765 4.875 4.125 C3.225 5.775 1.575 7.425 -0.125 9.125 C-2.0625 8.4375 -2.0625 8.4375 -4.125 7.125 C-5 4.625 -5 4.625 -5.125 2.125 C-3.125 0.125 -3.125 0.125 0 0 Z " fill="#FF6009" transform="translate(48.125,22.875)"/>
<path d="M0 0 C-0.47620289 4.37653129 -1.66899889 6.06538005 -5.0625 8.8125 C-5.79597656 9.41707031 -6.52945312 10.02164063 -7.28515625 10.64453125 C-7.85105469 11.09183594 -8.41695312 11.53914063 -9 12 C-10.33048066 9.8086201 -11.02943402 8.48164764 -10.87109375 5.890625 C-9.71736878 3.38657619 -8.54531062 2.88140737 -6.0625 1.75 C-5.35222656 1.41484375 -4.64195313 1.0796875 -3.91015625 0.734375 C-2 0 -2 0 0 0 Z " fill="#FFF5F1" transform="translate(36,49)"/>
<path d="M0 0 C2.5625 0.1875 2.5625 0.1875 4.5625 2.1875 C4.1875 5.8125 4.1875 5.8125 3.5625 9.1875 C0.20654172 8.58822174 -1.81551226 7.34127564 -4.4375 5.1875 C-3.32386364 0.25568182 -3.32386364 0.25568182 0 0 Z " fill="#FF600C" transform="translate(83.4375,21.8125)"/>
<path d="M0 0 C0 1.32 0 2.64 0 4 C-1.96875 5.703125 -1.96875 5.703125 -4.5 7.25 C-5.75296875 8.03117187 -5.75296875 8.03117187 -7.03125 8.828125 C-8.00578125 9.40820312 -8.00578125 9.40820312 -9 10 C-9.29296875 3.9453125 -9.29296875 3.9453125 -9 2 C-5.5647952 -0.29013653 -4.014669 -0.17842973 0 0 Z " fill="#FFF3ED" transform="translate(37,40)"/>
<path d="M0 0 C0.66 0 1.32 0 2 0 C2.33 3.96 2.66 7.92 3 12 C2.01 12.66 1.02 13.32 0 14 C-1 13 -1 13 -1.1328125 10.3125 C-1.13023438 9.219375 -1.12765625 8.12625 -1.125 7 C-1.12757812 5.906875 -1.13015625 4.81375 -1.1328125 3.6875 C-1 1 -1 1 0 0 Z " fill="#FFF9F7" transform="translate(28,62)"/>
<path d="M0 0 C0.99 0 1.98 0 3 0 C3.08082094 1.95766281 3.13910778 3.91626728 3.1875 5.875 C3.22230469 6.96554688 3.25710937 8.05609375 3.29296875 9.1796875 C3.19628906 10.11039063 3.09960938 11.04109375 3 12 C2.01 12.66 1.02 13.32 0 14 C0.33 12.35 0.66 10.7 1 9 C0.34 9 -0.32 9 -1 9 C-0.67 6.03 -0.34 3.06 0 0 Z " fill="#FF5D0B" transform="translate(87,35)"/>
<path d="M0 0 C4.95 0.99 4.95 0.99 10 2 C10 3.65 10 5.3 10 7 C6.66666667 5.66666667 3.33333333 4.33333333 0 3 C0 2.01 0 1.02 0 0 Z " fill="#FF651A" transform="translate(81,60)"/>
<path d="M0 0 C3.96 0 7.92 0 12 0 C11.67 0.66 11.34 1.32 11 2 C10.34 2 9.68 2 9 2 C9 2.66 9 3.32 9 4 C6.36 4 3.72 4 1 4 C0.67 2.68 0.34 1.36 0 0 Z " fill="#FF5D0B" transform="translate(71,38)"/>
<path d="M0 0 C-0.61277612 2.96175123 -1.25372522 4.38058783 -3 7 C-3.99 7 -4.98 7 -6 7 C-6.66 5.02 -7.32 3.04 -8 1 C-5.10765685 0.17361624 -3.11257569 0 0 0 Z " fill="#FFEFE9" transform="translate(37,84)"/>
<path d="M0 0 C1.32 0 2.64 0 4 0 C4 1.98 4 3.96 4 6 C2.35 6.33 0.7 6.66 -1 7 C-1.04254356 5.00045254 -1.04080783 2.99958364 -1 1 C-0.67 0.67 -0.34 0.34 0 0 Z " fill="#FFEADF" transform="translate(65,84)"/>
<path d="M0 0 C1.32 0.33 2.64 0.66 4 1 C4.33 3.64 4.66 6.28 5 9 C2.525 8.01 2.525 8.01 0 7 C0 4.69 0 2.38 0 0 Z " fill="#FFF0EA" transform="translate(40,75)"/>
<path d="M0 0 C0.99 1.485 0.99 1.485 2 3 C2.66 2.67 3.32 2.34 4 2 C4 2.66 4 3.32 4 4 C4.66 4 5.32 4 6 4 C6 6.64 6 9.28 6 12 C5.67 12 5.34 12 5 12 C5 9.69 5 7.38 5 5 C4.01 5.495 4.01 5.495 3 6 C2.53348793 8.12576782 2.53348793 8.12576782 2.375 10.5625 C2.30023437 11.38878906 2.22546875 12.21507813 2.1484375 13.06640625 C2.09945313 13.70449219 2.05046875 14.34257813 2 15 C1.67 15 1.34 15 1 15 C0.67 10.05 0.34 5.1 0 0 Z " fill="#FF935E" transform="translate(25,57)"/>
<path d="M0 0 C0.99 0.33 1.98 0.66 3 1 C3 4 3 4 1.125 6.1875 C-1 8 -1 8 -3 8 C-3.33 6.35 -3.66 4.7 -4 3 C-2.1875 1.4375 -2.1875 1.4375 0 0 Z " fill="#FFEFE9" transform="translate(32,75)"/>
<path d="M0 0 C3.875 0.875 3.875 0.875 5 2 C4.71269945 4.33944736 4.38063221 6.6739143 4 9 C0 4.5 0 4.5 0 0 Z " fill="#FFE6DC" transform="translate(48,78)"/>
<path d="M0 0 C0.33 0 0.66 0 1 0 C1.33 2.64 1.66 5.28 2 8 C1.34 8 0.68 8 0 8 C-0.33 8.99 -0.66 9.98 -1 11 C-3.0625 11.6875 -3.0625 11.6875 -5 12 C-4.75 10.125 -4.75 10.125 -4 8 C-1.9375 6.75 -1.9375 6.75 0 6 C0 4.02 0 2.04 0 0 Z " fill="#FF6B20" transform="translate(57,43)"/>
<path d="M0 0 C1.65 0 3.3 0 5 0 C5.33 1.98 5.66 3.96 6 6 C4.35 5.67 2.7 5.34 1 5 C0.67 3.35 0.34 1.7 0 0 Z " fill="#FFF3EE" transform="translate(56,85)"/>
<path d="M0 0 C0.66 0 1.32 0 2 0 C2 0.66 2 1.32 2 2 C4.475 2.99 4.475 2.99 7 4 C6.67 4.99 6.34 5.98 6 7 C3.5625 6.3125 3.5625 6.3125 1 5 C0.1875 2.375 0.1875 2.375 0 0 Z " fill="#FF6013" transform="translate(74,48)"/>
<path d="M0 0 C2.475 0.99 2.475 0.99 5 2 C4.67 2.66 4.34 3.32 4 4 C-0.29 3.67 -4.58 3.34 -9 3 C-9 2.67 -9 2.34 -9 2 C-6.94921875 1.77213542 -4.8984375 1.54427083 -2.84765625 1.31640625 C-0.98859771 1.18113386 -0.98859771 1.18113386 0 0 Z " fill="#FF7938" transform="translate(71,64)"/>
<path d="M0 0 C-0.66 1.65 -1.32 3.3 -2 5 C-3.65 5 -5.3 5 -7 5 C-5.22678182 1.07358831 -4.52021524 0 0 0 Z " fill="#FF7230" transform="translate(63,30)"/>
<path d="M0 0 C2.31 0.33 4.62 0.66 7 1 C7 1.99 7 2.98 7 4 C4.625 3.6875 4.625 3.6875 2 3 C1.34 2.01 0.68 1.02 0 0 Z " fill="#FF5E14" transform="translate(69,30)"/>
<path d="M0 0 C1.98 0 3.96 0 6 0 C6 0.99 6 1.98 6 3 C4.02 3.66 2.04 4.32 0 5 C0 3.33333333 0 1.66666667 0 0 Z " fill="#FF6B23" transform="translate(44,60)"/>
<path d="M0 0 C0.99 0.33 1.98 0.66 3 1 C1.02 3.31 -0.96 5.62 -3 8 C-3.66 7.67 -4.32 7.34 -5 7 C-1.125 1.125 -1.125 1.125 0 0 Z " fill="#FF661A" transform="translate(6,4)"/>
<path d="M0 0 C0.33 0 0.66 0 1 0 C1.33 2.31 1.66 4.62 2 7 C0.35 7 -1.3 7 -3 7 C-2.25 2.25 -2.25 2.25 0 0 Z " fill="#FF6D21" transform="translate(71,84)"/>
</svg>
